<?xml version="1.0" encoding="utf-8"?>
<!-- Generator: Adobe Illustrator 16.0.0, SVG Export Plug-In . SVG Version: 6.00 Build 0)  -->
<!DOCTYPE svg PUBLIC "-//W3C//DTD SVG 1.1//EN" "http://www.w3.org/Graphics/SVG/1.1/DTD/svg11.dtd">
<svg version="1.1" id="Layer_1" xmlns="http://www.w3.org/2000/svg" xmlns:xlink="http://www.w3.org/1999/xlink" x="0px" y="0px"
	 width="696px" height="226px" viewBox="0 0 696 226" enable-background="new 0 0 696 226" xml:space="preserve">
<g>
	<path fill="#FFFFFF" d="M11.209,47.653c0.322,0.024,0.54,0.055,0.758,0.055c23.345,0.003,46.69,0.004,70.035,0.004
		c10.909,0,21.818-0.016,32.727,0.007c5.155,0.011,8.991,3.746,8.972,8.65c-0.019,4.889-3.913,8.559-9.062,8.559
		c-11.224,0.003-22.447,0.018-33.67,0.02c-22.677,0.003-45.354,0-68.031,0c-0.566,0-1.131,0-1.684,0c0,8.052,0,15.911,0,23.842
		c0.639,0,1.175,0,1.711,0c24.977,0,49.953,0.006,74.929-0.02c0.933-0.001,1.577,0.269,2.23,0.933
		c13.502,13.722,27.031,27.415,40.532,41.138c0.683,0.694,1.344,1.002,2.337,1c17.132-0.032,34.264-0.022,51.396-0.022
		c0.481,0,0.963,0,1.481,0c0-22.351,0-44.549,0-66.791c-9.257,0-18.43,0-27.769,0c0,18.839,0,37.602,0,56.771
		c-10.226-10.956-20.171-21.611-30.168-32.322c0.358-0.173,0.594-0.301,0.84-0.402c15.421-6.395,23.654-21.27,20.873-37.716
		c-2.588-15.308-16.986-27.479-32.523-27.48c-34.804-0.004-69.609-0.001-104.414-0.001c-0.481,0-0.962,0-1.499,0
		C11.209,31.852,11.209,39.68,11.209,47.653z"/>
	<path fill="#FFFFFF" d="M680.447,47.896c-0.16-0.369-0.293-0.74-0.475-1.088c-7.623-14.615-19.629-22.669-36.143-22.853
		c-26.596-0.296-53.196-0.109-79.795-0.039c-2.904,0.008-5.861,0.346-8.704,0.95c-17.659,3.755-31.81,19.706-31.702,39.994
		c0.044,8.386-0.028,16.771,0.03,25.155c0.017,2.337,0.136,4.7,0.504,7.004c3.175,19.872,20.008,34.148,40.272,34.168
		c25.651,0.025,51.303,0.046,76.955-0.038c3.67-0.012,7.407-0.286,10.992-1.026c9.049-1.869,16.372-6.702,22.397-13.688
		c5.829-6.757,7.927-14.648,7.841-23.37c-0.088-8.88-0.02-17.762-0.02-26.644c0-0.472,0-0.945,0-1.374c-8.939,0-17.664,0-26.494,0
		c0,0.54,0,0.982,0,1.425c0,6.943,0.023,13.886-0.021,20.828c-0.009,1.385-0.134,2.802-0.448,4.147
		c-1.854,7.928-8.88,13.206-17.545,13.218c-20.738,0.026-41.475,0.044-62.213,0.041c-3.469-0.001-6.953,0.054-10.404-0.234
		c-8.311-0.692-15.236-8.131-15.262-16.217c-0.024-7.664-0.034-15.328,0.018-22.991c0.01-1.563,0.145-3.17,0.525-4.679
		c1.924-7.608,8.975-12.868,17.147-12.87c31.378-0.007,62.755-0.008,94.132,0.005c3.109,0.001,6.218,0.138,9.327,0.169
		C674.333,47.919,677.303,47.896,680.447,47.896z"/>
	<path fill="#FFFFFF" d="M517.327,104.668c-3.223,0-6.147-0.001-9.071,0c-32.056,0.016-64.111,0.038-96.166,0.038
		c-3.605,0-7.225,0.063-10.811-0.233c-8.312-0.688-15.285-8.155-15.307-16.197c-0.021-7.528-0.037-15.057,0.019-22.585
		c0.013-1.699,0.13-3.446,0.54-5.086c1.9-7.605,8.974-12.888,17.135-12.89c32.867-0.008,65.734-0.005,98.602,0.002
		c1.261,0.001,2.521,0.109,3.783,0.115c3.361,0.018,6.721,0.006,10.144,0.006c-0.067-0.171-0.141-0.421-0.257-0.649
		c-7.444-14.642-19.321-22.952-35.772-23.199c-26.909-0.403-53.829-0.142-80.745-0.07c-2.812,0.007-5.673,0.391-8.43,0.981
		c-17.518,3.75-31.647,19.637-31.569,39.819c0.033,8.476-0.03,16.952,0.029,25.428c0.017,2.336,0.135,4.7,0.515,7.001
		c3.229,19.601,19.645,33.868,39.574,34c26.775,0.177,53.557,0.294,80.33-0.052c15.912-0.206,27.72-7.952,35.396-21.902
		C516.014,107.831,516.563,106.357,517.327,104.668z"/>
	<path fill="#FFFFFF" d="M350.368,104.669c-3.1,0-5.937-0.001-8.774,0c-33.901,0.008-67.804,0.026-101.706,0.004
		c-2.423-0.002-4.9-0.027-7.258-0.507c-7.644-1.557-13.451-8.379-13.494-15.674c-0.046-7.889-0.066-15.779,0.006-23.668
		c0.087-9.476,7.669-17.106,17.166-17.089c37.281,0.066,74.562,0.221,111.843,0.34c0.375,0.001,0.751-0.043,1.251-0.073
		c-0.202-0.482-0.315-0.818-0.477-1.129c-7.612-14.611-19.59-22.725-36.111-22.914c-26.64-0.307-53.287-0.118-79.931-0.066
		c-10.44,0.02-19.606,3.585-27.256,10.697c-8.585,7.983-12.943,17.922-13.02,29.665c-0.057,8.656-0.105,17.313,0.038,25.968
		c0.054,3.266,0.311,6.604,1.064,9.769c4.427,18.572,20.478,31.17,39.575,31.196c21.595,0.029,43.189,0.007,64.785,0.006
		c5.046,0,10.096,0.122,15.137-0.031c12.189-0.371,22.298-5.224,30.237-14.493C346.421,113.191,348.69,109.275,350.368,104.669z"/>
	<path fill="#FFFFFF" d="M158.179,48.949c9.332,0,18.505,0,27.669,0c0-8.393,0-16.698,0-24.984c-9.276,0-18.446,0-27.669,0
		C158.179,32.327,158.179,40.6,158.179,48.949z"/>
	<path fill="#FFFFFF" d="M558.159,206.688c0-2.979-0.028-5.854,0.011-8.728c0.021-1.572,0.047-3.158,0.264-4.71
		c0.354-2.528,2.574-4.306,5.24-4.371c3.399-0.083,5.02,1.002,5.602,3.979c0.283,1.444,0.346,2.946,0.371,4.426
		c0.055,3.098,0.018,6.196,0.018,9.372c0.943,0,1.729,0,2.514,0c0.064-0.183,0.148-0.305,0.146-0.427
		c-0.041-4.234,0.08-8.479-0.192-12.698c-0.203-3.142-1.404-5.922-4.882-6.875c-3.27-0.896-6.309-0.503-9.104,2.062
		c0-2.969,0-5.683,0-8.414c-0.949,0-1.74,0-2.578,0c0,8.823,0,17.581,0,26.385C556.424,206.688,557.184,206.688,558.159,206.688z"/>
	<path fill="#FFFFFF" d="M301.315,202.632c-1.842-4.849-3.594-9.45-5.34-14.055c-0.826-2.177-1.395-2.448-3.736-1.707
		c0.126,0.377,0.239,0.759,0.381,1.129c2.245,5.831,4.477,11.666,6.759,17.481c0.319,0.813,0.32,1.484-0.031,2.277
		c-0.756,1.71-1.417,3.463-2.125,5.221c2.559,0.554,2.722,0.473,3.572-1.613c3.138-7.701,6.278-15.402,9.414-23.104
		c0.196-0.481,0.36-0.977,0.58-1.577c-0.527-0.034-0.883-0.029-1.229-0.084c-1.357-0.217-2.156,0.225-2.53,1.662
		c-0.347,1.336-1,2.594-1.518,3.886C304.146,195.562,302.779,198.978,301.315,202.632z"/>
	<path fill="#FFFFFF" d="M399.359,206.657c-0.154-4.961-0.098-9.864-0.533-14.724c-0.283-3.161-2.581-4.895-5.676-5.492
		c-2.99-0.576-5.683,0.019-8.085,2.215c-0.034-0.771-0.059-1.334-0.087-1.971c-0.869,0-1.654,0-2.496,0c0,6.712,0,13.342,0,19.945
		c0.903,0,1.688,0,2.539,0c0-1.63-0.023-3.158,0.006-4.686c0.052-2.744,0.02-5.497,0.236-8.229c0.252-3.167,2.604-4.915,6.163-4.836
		c3.042,0.068,4.851,1.786,4.978,5.041c0.145,3.689,0.09,7.386,0.121,11.079c0.004,0.527,0.001,1.055,0.001,1.657
		C397.475,206.657,398.26,206.657,399.359,206.657z"/>
	<path fill="#FFFFFF" d="M646.541,206.677c0.023-0.482,0.062-0.879,0.059-1.274c-0.038-4.054,0.072-8.115-0.163-12.157
		c-0.331-5.703-4.778-7.185-8.486-6.998c-2.021,0.103-3.793,0.873-5.435,2.282c-0.082-0.723-0.143-1.241-0.208-1.816
		c-0.821,0-1.595,0-2.38,0c0,6.708,0,13.309,0,19.948c0.825,0,1.568,0,2.408,0c0.027-0.505,0.066-0.942,0.072-1.38
		c0.045-3.738,0.023-7.479,0.146-11.214c0.096-2.936,2.298-5.041,5.205-5.187c3.605-0.18,5.537,1.123,5.893,4.434
		c0.311,2.896,0.217,5.837,0.275,8.759c0.031,1.517,0.006,3.033,0.006,4.604C644.858,206.677,645.613,206.677,646.541,206.677z"/>
	<path fill="#FFFFFF" d="M486.076,204.029c-3.121,0-6.087,0-9.209,0c0-7.936,0-15.793,0-23.686c-1.026,0-1.891,0-2.745,0
		c0,8.823,0,17.541,0,26.306c4.015,0,7.95,0,11.954,0C486.076,205.778,486.076,204.991,486.076,204.029z"/>
	<path fill="#FFFFFF" d="M590.191,180.288c0,2.138,0,4.148,0,6.36c-1.309,0-2.49,0-3.632,0c0,1.034,0,1.859,0,2.822
		c1.266,0,2.413,0,3.694,0c0,5.801,0,11.46,0,17.187c0.928,0,1.713,0,2.682,0c0-5.769,0-11.461,0-17.284c1.337,0,2.49,0,3.666,0
		c0-0.965,0-1.797,0-2.784c-1.242,0-2.392,0-3.723,0c0-2.191,0-4.231,0-6.301C591.938,180.288,591.186,180.288,590.191,180.288z"/>
	<path fill="#FFFFFF" d="M240.307,186.688c0,0.547,0,1.029,0,1.513c-0.006,6.536,0.003,13.071-0.026,19.606
		c-0.01,2.184-0.263,2.448-2.346,2.934c0,0.779,0,1.566,0,2.345c2.898,0.271,4.285-0.754,4.803-3.523
		c0.131-0.703,0.226-1.425,0.228-2.139c0.017-6.445,0.01-12.891,0.01-19.336c0-0.439,0-0.878,0-1.399
		C242.042,186.688,241.254,186.688,240.307,186.688z"/>
	<path fill="#FFFFFF" d="M611.012,186.657c0,6.762,0,13.386,0,19.991c0.892,0,1.681,0,2.475,0c0-6.704,0-13.322,0-19.991
		C612.617,186.657,611.86,186.657,611.012,186.657z"/>
	<path fill="#FFFFFF" d="M503.784,206.672c0-6.735,0-13.357,0-19.943c-0.909,0-1.689,0-2.462,0c0,6.71,0,13.297,0,19.943
		C502.171,206.672,502.919,206.672,503.784,206.672z"/>
	<path fill="#FFFFFF" d="M242.879,184.441c0-1.485,0-2.811,0-4.121c-0.886,0-1.674,0-2.494,0c0,1.403,0,2.726,0,4.121
		C241.245,184.441,242.028,184.441,242.879,184.441z"/>
	<path fill="#FFFFFF" d="M610.988,180.239c0,1.511,0,2.83,0,4.169c0.896,0,1.711,0,2.528,0c0-1.427,0-2.745,0-4.115
		c-0.384-0.021-0.688-0.047-0.992-0.052C612.041,180.233,611.557,180.239,610.988,180.239z"/>
	<path fill="#FFFFFF" d="M501.221,180.313c0,0.774-0.001,1.44,0,2.106c0,2.234,0,2.235,2.309,2.054
		c0.078-0.007,0.15-0.087,0.303-0.181c0-1.271,0-2.588,0-3.979C502.988,180.313,502.205,180.313,501.221,180.313z"/>
	<path fill-rule="evenodd" clip-rule="evenodd" fill="#FFFFFF" d="M11.209,47.653c0-7.974,0-15.802,0-23.778
		c0.537,0,1.018,0,1.499,0c34.805,0,69.609-0.003,104.414,0.001c15.538,0.002,29.935,12.173,32.523,27.48
		c2.782,16.446-5.452,31.321-20.873,37.716c-0.246,0.102-0.482,0.229-0.84,0.402c9.998,10.711,19.942,21.366,30.168,32.322
		c0-19.169,0-37.932,0-56.771c9.339,0,18.512,0,27.769,0c0,22.242,0,44.44,0,66.791c-0.518,0-1,0-1.481,0
		c-17.132,0-34.264-0.01-51.396,0.022c-0.993,0.002-1.654-0.306-2.337-1c-13.501-13.723-27.03-27.416-40.532-41.138
		c-0.653-0.664-1.297-0.934-2.23-0.933c-24.977,0.025-49.953,0.02-74.929,0.02c-0.537,0-1.073,0-1.711,0c0-7.931,0-15.79,0-23.842
		c0.553,0,1.118,0,1.684,0c22.677,0,45.354,0.003,68.031,0c11.223-0.002,22.447-0.017,33.67-0.02c5.149,0,9.043-3.67,9.062-8.559
		c0.019-4.904-3.817-8.64-8.972-8.65c-10.909-0.022-21.818-0.007-32.727-0.007c-23.345,0-46.69-0.001-70.035-0.004
		C11.75,47.708,11.531,47.678,11.209,47.653z"/>
	<path fill-rule="evenodd" clip-rule="evenodd" fill="#FFFFFF" d="M680.447,47.896c-3.145,0-6.114,0.023-9.083-0.007
		c-3.109-0.031-6.218-0.168-9.327-0.169c-31.377-0.013-62.754-0.012-94.132-0.005c-8.173,0.002-15.224,5.262-17.147,12.87
		c-0.381,1.509-0.516,3.115-0.525,4.679c-0.052,7.663-0.042,15.327-0.018,22.991c0.025,8.086,6.951,15.524,15.262,16.217
		c3.451,0.288,6.936,0.233,10.404,0.234c20.738,0.003,41.475-0.015,62.213-0.041c8.665-0.012,15.691-5.29,17.545-13.218
		c0.314-1.346,0.439-2.763,0.448-4.147c0.044-6.942,0.021-13.885,0.021-20.828c0-0.442,0-0.885,0-1.425c8.83,0,17.555,0,26.494,0
		c0,0.429,0,0.902,0,1.374c0,8.882-0.068,17.764,0.02,26.644c0.086,8.722-2.012,16.613-7.841,23.37
		c-6.025,6.986-13.349,11.819-22.397,13.688c-3.585,0.74-7.322,1.015-10.992,1.026c-25.652,0.084-51.304,0.063-76.955,0.038
		c-20.265-0.02-37.098-14.296-40.272-34.168c-0.368-2.304-0.487-4.667-0.504-7.004c-0.059-8.385,0.014-16.77-0.03-25.155
		c-0.107-20.288,14.043-36.239,31.702-39.994c2.843-0.604,5.8-0.942,8.704-0.95c26.599-0.07,53.199-0.257,79.795,0.039
		c16.514,0.184,28.52,8.237,36.143,22.853C680.154,47.155,680.287,47.526,680.447,47.896z"/>
	<path fill-rule="evenodd" clip-rule="evenodd" fill="#FFFFFF" d="M517.327,104.668c-0.764,1.689-1.313,3.163-2.062,4.526
		c-7.676,13.95-19.483,21.696-35.396,21.902c-26.773,0.346-53.555,0.229-80.33,0.052c-19.93-0.132-36.345-14.399-39.574-34
		c-0.379-2.301-0.498-4.665-0.515-7.001c-0.06-8.476,0.003-16.952-0.029-25.428C359.343,44.537,373.473,28.65,390.99,24.9
		c2.757-0.591,5.617-0.975,8.43-0.981c26.916-0.071,53.836-0.333,80.745,0.07c16.451,0.247,28.328,8.558,35.772,23.199
		c0.116,0.229,0.189,0.479,0.257,0.649c-3.423,0-6.782,0.012-10.144-0.006c-1.262-0.006-2.522-0.114-3.783-0.115
		c-32.867-0.007-65.734-0.01-98.602-0.002c-8.161,0.002-15.234,5.284-17.135,12.89c-0.41,1.64-0.527,3.387-0.54,5.086
		c-0.056,7.528-0.04,15.057-0.019,22.585c0.021,8.042,6.994,15.51,15.307,16.197c3.586,0.297,7.205,0.233,10.811,0.233
		c32.055,0,64.11-0.022,96.166-0.038C511.18,104.667,514.104,104.668,517.327,104.668z"/>
	<path fill-rule="evenodd" clip-rule="evenodd" fill="#FFFFFF" d="M350.368,104.669c-1.677,4.606-3.946,8.522-6.924,12
		c-7.938,9.27-18.047,14.122-30.237,14.493c-5.042,0.153-10.091,0.031-15.137,0.031c-21.595,0.001-43.189,0.023-64.785-0.006
		c-19.097-0.026-35.148-12.624-39.575-31.196c-0.754-3.164-1.011-6.503-1.064-9.769c-0.143-8.654-0.094-17.312-0.038-25.968
		c0.077-11.743,4.434-21.682,13.02-29.665c7.65-7.112,16.816-10.678,27.256-10.697c26.644-0.052,53.291-0.24,79.931,0.066
		c16.521,0.189,28.499,8.303,36.111,22.914c0.162,0.311,0.274,0.646,0.477,1.129c-0.5,0.03-0.875,0.074-1.251,0.073
		c-37.281-0.119-74.562-0.273-111.843-0.34c-9.497-0.018-17.079,7.613-17.166,17.089c-0.073,7.889-0.053,15.779-0.006,23.668
		c0.043,7.295,5.85,14.117,13.494,15.674c2.358,0.479,4.835,0.505,7.258,0.507c33.902,0.022,67.804,0.004,101.706-0.004
		C344.431,104.668,347.268,104.669,350.368,104.669z"/>
	<path fill-rule="evenodd" clip-rule="evenodd" fill="#FFFFFF" d="M158.179,48.949c0-8.35,0-16.622,0-24.984
		c9.224,0,18.393,0,27.669,0c0,8.286,0,16.592,0,24.984C176.684,48.949,167.51,48.949,158.179,48.949z"/>
	<path fill-rule="evenodd" clip-rule="evenodd" fill="#FFFFFF" d="M520.725,208.159c0.762,0,1.527-0.047,2.282,0.023
		c0.288,0.026,0.679,0.253,0.809,0.501c1.42,2.718,3.823,3.458,6.604,3.132c3.195-0.376,5.195-2.304,6.065-5.369
		c0.236-0.833,0.263-1.727,0.259-2.671c-2.146,2.309-4.66,3.604-7.795,3.419c-2.856-0.169-5.354-1.19-7.271-3.372
		c-3.854-4.382-3.5-10.98,0.67-15.013c3.402-3.291,10.518-3.899,14.381,0.704c0.051-1.033,0.093-1.888,0.139-2.82
		c0.863,0,1.65,0,2.412,0c0.072,0.124,0.156,0.201,0.156,0.277c0.01,5.993,0.168,11.992-0.039,17.979
		c-0.135,3.899-1.746,7.266-5.655,8.784c-3.854,1.497-7.649,1.194-10.867-1.635c-1.054-0.927-1.699-2.319-2.531-3.499
		C520.471,208.452,520.598,208.306,520.725,208.159z M529.29,204.63c4.022,0.033,7.497-3.582,7.514-7.815
		c0.017-4.336-3.399-8.138-7.354-8.186c-4.022-0.048-7.516,3.556-7.557,7.797C521.85,200.946,525.141,204.596,529.29,204.63z"/>
	<path fill-rule="evenodd" clip-rule="evenodd" fill="#FFFFFF" d="M663.292,208.158c0.757,0,1.517-0.045,2.267,0.022
		c0.297,0.026,0.712,0.229,0.836,0.472c1.396,2.733,3.79,3.472,6.575,3.17c3.08-0.334,5.083-2.146,6.019-5.069
		c0.289-0.901,0.324-1.886,0.34-2.921c-2.262,2.326-4.845,3.608-8.088,3.335c-2.979-0.251-5.437-1.469-7.333-3.785
		c-3.415-4.171-2.929-10.778,0.942-14.508c3.479-3.35,10.591-3.993,14.459,0.623c0.064-1.011,0.119-1.863,0.18-2.799
		c0.855,0,1.641,0,2.508,0c0.023,0.428,0.062,0.823,0.062,1.219c0.004,5.225,0.039,10.45-0.022,15.674
		c-0.017,1.377-0.188,2.79-0.542,4.119c-2.254,8.463-12.826,8.255-16.5,3.949c-0.791-0.929-1.334-2.069-1.992-3.111
		C663.099,208.418,663.195,208.288,663.292,208.158z M679.372,196.715c-0.007-4.337-3.491-8.125-7.438-8.086
		c-4.066,0.042-7.437,3.612-7.458,7.904c-0.023,4.479,3.337,8.102,7.514,8.101C675.99,204.634,679.379,200.999,679.372,196.715z"/>
	<path fill-rule="evenodd" clip-rule="evenodd" fill="#FFFFFF" d="M134.374,180.443c3.685,0,7.306-0.271,10.87,0.064
		c5.099,0.479,8.097,3.812,9.664,8.45c1.936,5.73,0.028,12.075-4.43,15.452c-2.024,1.533-4.354,2.161-6.808,2.251
		c-3.057,0.112-6.122,0.027-9.297,0.027C134.374,197.917,134.374,189.163,134.374,180.443z M137.015,204.004
		c2.434,0,4.825,0.197,7.17-0.046c3.551-0.367,6.29-2.146,7.604-5.61c1.188-3.13,1.261-6.333,0.036-9.48
		c-1.065-2.734-2.881-4.969-5.828-5.501c-2.917-0.526-5.944-0.446-8.982-0.636C137.015,190.02,137.015,196.973,137.015,204.004z"/>
	<path fill-rule="evenodd" clip-rule="evenodd" fill="#FFFFFF" d="M434.707,206.69c-0.879,0-1.637,0-2.543,0
		c0-0.819,0-1.601,0-2.706c-2.987,2.807-6.224,3.848-9.967,3.011c-2.485-0.557-4.422-1.964-5.901-3.993
		c-3.209-4.4-2.462-10.743,1.554-14.349c3.341-3,9.924-3.745,14.218,0.826c0-3.149,0-6.123,0-9.167c0.961,0,1.753,0,2.64,0
		C434.707,189.065,434.707,197.822,434.707,206.69z M417.164,196.532c-0.019,4.562,3.287,8.149,7.545,8.187
		c3.925,0.034,7.4-3.577,7.436-7.727c0.037-4.484-3.252-8.159-7.366-8.229C420.586,188.691,417.183,192.164,417.164,196.532z"/>
	<path fill-rule="evenodd" clip-rule="evenodd" fill="#FFFFFF" d="M190.406,197.562c-5.933,0-11.778,0-17.611,0
		c-0.326,2.275,1.293,5.007,3.656,6.262c3.192,1.695,7.123,0.9,9.391-1.899c1.456-1.799,1.456-1.799,3.862-1.561
		c-0.754,4.281-6.182,7.634-11.104,6.855c-5.6-0.885-9.563-6.207-8.821-11.846c0.831-6.314,5.675-9.916,12.305-9.147
		C187.077,186.805,190.88,191.9,190.406,197.562z M187.357,195.116c-0.451-3.879-3.638-6.604-7.527-6.486
		c-3.779,0.113-6.747,2.826-7.046,6.486C177.643,195.116,182.497,195.116,187.357,195.116z"/>
	<path fill-rule="evenodd" clip-rule="evenodd" fill="#FFFFFF" d="M225.173,197.536c-5.97,0-11.861,0-17.744,0
		c-0.241,3.291,2.624,6.614,6.033,7.048c3.3,0.419,5.904-0.7,7.738-3.552c0.234-0.364,0.786-0.64,1.235-0.724
		c0.645-0.122,1.331-0.031,2.02-0.031c-0.981,4.479-6.247,7.702-11.164,6.943c-4.99-0.771-9.709-5.518-8.711-12.56
		c0.715-5.044,5.483-8.728,10.793-8.569C221.256,186.269,225.46,191.236,225.173,197.536z M222.121,195.102
		c-1.012-5.034-4.416-6.578-7.806-6.436c-3.776,0.159-6.62,2.953-6.796,6.436C212.362,195.102,217.203,195.102,222.121,195.102z"/>
	<path fill-rule="evenodd" clip-rule="evenodd" fill="#FFFFFF" d="M363.661,189.526c0-1.071,0-1.868,0-2.792
		c0.895,0,1.708,0,2.602,0c0,6.637,0,13.24,0,19.922c-0.844,0-1.631,0-2.531,0c0-0.822,0-1.614,0-2.769
		c-2.542,2.562-5.38,3.656-8.668,3.342c-3.292-0.314-5.854-1.882-7.655-4.688c-2.859-4.458-1.868-10.605,2.212-14.058
		C352.647,185.922,359.14,184.675,363.661,189.526z M363.664,196.695c0.043-4.195-3.395-7.887-7.391-7.936
		c-4.233-0.052-7.625,3.541-7.643,8.092c-0.017,4.324,3.232,7.773,7.407,7.863C360.088,204.803,363.618,201.091,363.664,196.695z"/>
	<path fill-rule="evenodd" clip-rule="evenodd" fill="#FFFFFF" d="M276.027,189.463c0-1.078,0-1.87,0-2.758c0.895,0,1.682,0,2.564,0
		c0,6.616,0,13.217,0,19.924c-0.77,0-1.555,0-2.509,0c0-0.768,0-1.589,0-2.757c-2.724,2.79-5.762,3.779-9.261,3.282
		c-2.662-0.379-4.825-1.664-6.472-3.783c-3.252-4.184-2.817-10.505,0.875-14.218C264.476,185.884,271.237,184.568,276.027,189.463z
		 M261.011,196.699c-0.132,4.352,3.117,7.885,7.373,8.018c3.92,0.122,7.525-3.531,7.631-7.73c0.11-4.381-3.112-8.053-7.215-8.222
		C264.592,188.591,261.15,192.096,261.011,196.699z"/>
	<path fill-rule="evenodd" clip-rule="evenodd" fill="#FFFFFF" d="M558.159,206.688c-0.976,0-1.735,0-2.591,0
		c0-8.804,0-17.562,0-26.385c0.838,0,1.629,0,2.578,0c0,2.731,0,5.445,0,8.414c2.795-2.564,5.834-2.957,9.104-2.062
		c3.478,0.953,4.679,3.733,4.882,6.875c0.272,4.219,0.151,8.464,0.192,12.698c0.002,0.122-0.082,0.244-0.146,0.427
		c-0.785,0-1.57,0-2.514,0c0-3.176,0.037-6.274-0.018-9.372c-0.025-1.479-0.088-2.981-0.371-4.426
		c-0.582-2.977-2.202-4.062-5.602-3.979c-2.666,0.065-4.887,1.843-5.24,4.371c-0.217,1.552-0.242,3.138-0.264,4.71
		C558.131,200.835,558.159,203.71,558.159,206.688z"/>
	<path fill-rule="evenodd" clip-rule="evenodd" fill="#FFFFFF" d="M301.315,202.632c1.463-3.654,2.831-7.069,4.198-10.483
		c0.518-1.292,1.171-2.55,1.518-3.886c0.374-1.438,1.172-1.879,2.53-1.662c0.346,0.055,0.701,0.05,1.229,0.084
		c-0.22,0.601-0.383,1.096-0.58,1.577c-3.136,7.701-6.276,15.402-9.414,23.104c-0.85,2.086-1.013,2.167-3.572,1.613
		c0.708-1.758,1.368-3.511,2.125-5.221c0.351-0.793,0.35-1.464,0.031-2.277c-2.283-5.815-4.515-11.65-6.759-17.481
		c-0.143-0.37-0.255-0.752-0.381-1.129c2.341-0.741,2.91-0.47,3.736,1.707C297.722,193.182,299.473,197.783,301.315,202.632z"/>
	<path fill-rule="evenodd" clip-rule="evenodd" fill="#FFFFFF" d="M399.359,206.657c-1.1,0-1.885,0-2.833,0
		c0-0.603,0.003-1.13-0.001-1.657c-0.031-3.693,0.023-7.39-0.121-11.079c-0.127-3.255-1.936-4.973-4.978-5.041
		c-3.56-0.079-5.911,1.669-6.163,4.836c-0.217,2.732-0.185,5.485-0.236,8.229c-0.029,1.527-0.006,3.056-0.006,4.686
		c-0.852,0-1.636,0-2.539,0c0-6.604,0-13.233,0-19.945c0.842,0,1.627,0,2.496,0c0.028,0.637,0.053,1.2,0.087,1.971
		c2.402-2.196,5.095-2.791,8.085-2.215c3.095,0.598,5.393,2.331,5.676,5.492C399.262,196.793,399.205,201.696,399.359,206.657z"/>
	<path fill-rule="evenodd" clip-rule="evenodd" fill="#FFFFFF" d="M646.541,206.677c-0.928,0-1.683,0-2.607,0
		c0-1.57,0.025-3.087-0.006-4.604c-0.059-2.922,0.035-5.862-0.275-8.759c-0.355-3.311-2.287-4.613-5.893-4.434
		c-2.907,0.146-5.109,2.251-5.205,5.187c-0.123,3.735-0.102,7.476-0.146,11.214c-0.006,0.438-0.045,0.875-0.072,1.38
		c-0.84,0-1.583,0-2.408,0c0-6.64,0-13.24,0-19.948c0.785,0,1.559,0,2.38,0c0.065,0.575,0.126,1.094,0.208,1.816
		c1.642-1.409,3.414-2.18,5.435-2.282c3.708-0.187,8.155,1.295,8.486,6.998c0.235,4.042,0.125,8.104,0.163,12.157
		C646.604,205.798,646.564,206.194,646.541,206.677z"/>
	<path fill-rule="evenodd" clip-rule="evenodd" fill="#FFFFFF" d="M486.076,204.029c0,0.962,0,1.749,0,2.62
		c-4.004,0-7.939,0-11.954,0c0-8.765,0-17.482,0-26.306c0.854,0,1.719,0,2.745,0c0,7.893,0,15.75,0,23.686
		C479.989,204.029,482.955,204.029,486.076,204.029z"/>
	<path fill-rule="evenodd" clip-rule="evenodd" fill="#FFFFFF" d="M590.191,180.288c0.994,0,1.746,0,2.688,0
		c0,2.069,0,4.109,0,6.301c1.331,0,2.48,0,3.723,0c0,0.987,0,1.819,0,2.784c-1.176,0-2.329,0-3.666,0c0,5.823,0,11.516,0,17.284
		c-0.969,0-1.754,0-2.682,0c0-5.727,0-11.386,0-17.187c-1.281,0-2.429,0-3.694,0c0-0.963,0-1.788,0-2.822c1.142,0,2.323,0,3.632,0
		C590.191,184.437,590.191,182.426,590.191,180.288z"/>
	<path fill-rule="evenodd" clip-rule="evenodd" fill="#FFFFFF" d="M240.307,186.688c0.947,0,1.735,0,2.669,0c0,0.521,0,0.96,0,1.399
		c0,6.445,0.007,12.891-0.01,19.336c-0.002,0.714-0.097,1.436-0.228,2.139c-0.519,2.77-1.905,3.794-4.803,3.523
		c0-0.778,0-1.565,0-2.345c2.083-0.485,2.336-0.75,2.346-2.934c0.029-6.535,0.02-13.07,0.026-19.606
		C240.308,187.717,240.307,187.234,240.307,186.688z"/>
	<path fill-rule="evenodd" clip-rule="evenodd" fill="#FFFFFF" d="M611.012,186.657c0.849,0,1.605,0,2.475,0
		c0,6.669,0,13.287,0,19.991c-0.794,0-1.583,0-2.475,0C611.012,200.043,611.012,193.419,611.012,186.657z"/>
	<path fill-rule="evenodd" clip-rule="evenodd" fill="#FFFFFF" d="M503.784,206.672c-0.865,0-1.613,0-2.462,0
		c0-6.646,0-13.233,0-19.943c0.772,0,1.553,0,2.462,0C503.784,193.314,503.784,199.937,503.784,206.672z"/>
	<path fill-rule="evenodd" clip-rule="evenodd" fill="#FFFFFF" d="M242.879,184.441c-0.852,0-1.634,0-2.494,0
		c0-1.396,0-2.718,0-4.121c0.82,0,1.608,0,2.494,0C242.879,181.631,242.879,182.956,242.879,184.441z"/>
	<path fill-rule="evenodd" clip-rule="evenodd" fill="#FFFFFF" d="M610.988,180.239c0.568,0,1.053-0.006,1.536,0.002
		c0.305,0.005,0.608,0.03,0.992,0.052c0,1.37,0,2.688,0,4.115c-0.817,0-1.632,0-2.528,0
		C610.988,183.069,610.988,181.75,610.988,180.239z"/>
	<path fill-rule="evenodd" clip-rule="evenodd" fill="#FFFFFF" d="M501.221,180.313c0.984,0,1.768,0,2.611,0
		c0,1.392,0,2.709,0,3.979c-0.152,0.094-0.225,0.174-0.303,0.181c-2.309,0.182-2.309,0.181-2.309-2.054
		C501.22,181.754,501.221,181.088,501.221,180.313z"/>
</g>
</svg>
